<?xml version="1.0" standalone="no"?><svg xmlns:xlink="http://www.w3.org/1999/xlink" xmlns="http://www.w3.org/2000/svg" viewBox="0 0 1920 1016.4723188428004" preserveAspectRatio="xMaxYMax slice"><g transform="scale(1.471016380380319)"><rect x="0" y="0" width="1305.2222222222222" height="691" fill="#ffffff"/><rect x="0" y="0" width="76.77777777777777" height="76.77777777777777" fill="#ffffff"/><rect x="153.55555555555554" y="0" width="76.77777777777777" height="76.77777777777777" fill="#ffffff"/><rect x="191.94" y="0" width="38.39" height="38.39" fill="#ff98b0"/><rect x="460.66666666666663" y="0" width="76.77777777777777" height="76.77777777777777" fill="#ffffff"/><g transform="translate(460.67,0) scale(1.9195) rotate(0)"><path d="M5 0H10L5 5L0 10V5L5 0Z" fill="#7d93ee"/><path d="M20 15V20H15L20 15Z" fill="#7d93ee"/><path d="M20 5V10L15 15L10 20H5L20 5Z" fill="#7d93ee"/><path d="M15 0H20L5 15.0002L0 20.0002V15.0002L15 0Z" fill="#7d93ee"/></g><path d="M 499.06 76.78 A 38.39 38.39 0 0 1  537.45 38.39 L 499.06 76.78 A 38.39 38.39 0 0 0 537.45 38.39" fill="#6b84ec"/><rect x="844.5555555555554" y="0" width="76.77777777777777" height="76.77777777777777" fill="#ffffff"/><rect x="844.56" y="0" width="38.39" height="38.39" fill="#4c6ae8"/><g transform="translate(844.56,38.39) scale(1.9195) rotate(0)"><path d="M5 0H10L5 5L0 10V5L5 0Z" fill="#8c9ff0"/><path d="M20 15V20H15L20 15Z" fill="#8c9ff0"/><path d="M20 5V10L15 15L10 20H5L20 5Z" fill="#8c9ff0"/><path d="M15 0H20L5 15.0002L0 20.0002V15.0002L15 0Z" fill="#8c9ff0"/></g><rect x="882.94" y="38.39" width="38.39" height="38.39" fill="#eff2fd"/><rect x="921.3333333333333" y="0" width="76.77777777777777" height="76.77777777777777" fill="#ffffff"/><rect x="998.1111111111111" y="0" width="76.77777777777777" height="76.77777777777777" fill="#ffffff"/><path d="M 1036.5 38.39 A 38.39 38.39 0 0 1  1074.89 0 L 1036.5 38.39 A 38.39 38.39 0 0 0 1074.89 0" fill="#99aaf2"/><rect x="998.11" y="38.39" width="38.39" height="38.39" fill="#738bed"/><rect x="1228.4444444444443" y="0" width="76.77777777777777" height="76.77777777777777" fill="#ffffff"/><polygon points="1266.83,0 1305.22,0 1305.22,38.39" fill="#ff9ab2"/><rect x="0" y="76.77777777777777" width="76.77777777777777" height="76.77777777777777" fill="#ffffff"/><polygon points="0,115.17 38.39,115.17 38.39,153.56" fill="#5572e9"/><rect x="153.55555555555554" y="76.77777777777777" width="76.77777777777777" height="76.77777777777777" fill="#ffffff"/><rect x="230.33333333333331" y="76.77777777777777" width="76.77777777777777" height="76.77777777777777" fill="#ffffff"/><g transform="translate(268.72,115.17) scale(1.9195) rotate(0)"><path d="M5 0H10L5 5L0 10V5L5 0Z" fill="#ff406d"/><path d="M20 15V20H15L20 15Z" fill="#ff406d"/><path d="M20 5V10L15 15L10 20H5L20 5Z" fill="#ff406d"/><path d="M15 0H20L5 15.0002L0 20.0002V15.0002L15 0Z" fill="#ff406d"/></g><rect x="307.1111111111111" y="76.77777777777777" width="76.77777777777777" height="76.77777777777777" fill="#ffffff"/><rect x="345.5" y="76.78" width="38.39" height="38.39" fill="#ff8ba6"/><path d="M 345.5 115.17 A 38.39 38.39 0 0 1  383.89 153.56 L 345.5 115.17 A 38.39 38.39 0 0 0 383.89 153.56" fill="#c0cbf7"/><rect x="383.88888888888886" y="76.77777777777777" width="76.77777777777777" height="76.77777777777777" fill="#ffffff"/><path d="M 383.89 115.17 A 38.39 38.39 0 0 1  422.28 76.78 L 422.28 115.17" fill="#2348e2"/><g transform="translate(422.28,76.78) scale(1.9195) rotate(0)"><path d="M5 0H10L5 5L0 10V5L5 0Z" fill="#a8b6f4"/><path d="M20 15V20H15L20 15Z" fill="#a8b6f4"/><path d="M20 5V10L15 15L10 20H5L20 5Z" fill="#a8b6f4"/><path d="M15 0H20L5 15.0002L0 20.0002V15.0002L15 0Z" fill="#a8b6f4"/></g><path d="M 383.89 115.17 A 38.39 38.39 0 0 1  422.28 153.56 L 383.89 115.17 A 38.39 38.39 0 0 0 422.28 153.56" fill="#c6d0f8"/><rect x="691" y="76.77777777777777" width="76.77777777777777" height="76.77777777777777" fill="#ffffff"/><polygon points="767.78,76.78 767.78,115.17 729.39,115.17" fill="#5c77ea"/><polygon points="729.39,115.17 729.39,153.56 691,153.56" fill="#1b41e1"/><rect x="844.5555555555554" y="76.77777777777777" width="76.77777777777777" height="76.77777777777777" fill="#ffffff"/><rect x="1151.6666666666665" y="76.77777777777777" width="76.77777777777777" height="76.77777777777777" fill="#ffffff"/><path d="M 1190.06 76.78 A 38.39 38.39 0 0 1 1228.45 115.17 L 1190.06 115.17" fill="#ff5a81"/><path d="M 1151.67 115.17 A 38.39 38.39 0 0 1  1190.0600000000002 153.56 L 1151.67 115.17 A 38.39 38.39 0 0 0 1190.0600000000002 153.56" fill="#2348e2"/><path d="M 1190.06 153.56 A 38.39 38.39 0 0 1  1228.45 115.17 L 1190.06 153.56 A 38.39 38.39 0 0 0 1228.45 115.17" fill="#ffdae3"/><rect x="230.33333333333331" y="153.55555555555554" width="76.77777777777777" height="76.77777777777777" fill="#ffffff"/><rect x="307.1111111111111" y="153.55555555555554" width="76.77777777777777" height="76.77777777777777" fill="#ffffff"/><rect x="691" y="153.55555555555554" width="76.77777777777777" height="76.77777777777777" fill="#ffffff"/><path d="M 729.39 191.95 A 38.39 38.39 0 0 1  767.78 153.56 L 729.39 191.95 A 38.39 38.39 0 0 0 767.78 153.56" fill="#fffdfd"/><g transform="translate(691,191.94) scale(1.9195) rotate(0)"><path d="M5 0H10L5 5L0 10V5L5 0Z" fill="#ff698d"/><path d="M20 15V20H15L20 15Z" fill="#ff698d"/><path d="M20 5V10L15 15L10 20H5L20 5Z" fill="#ff698d"/><path d="M15 0H20L5 15.0002L0 20.0002V15.0002L15 0Z" fill="#ff698d"/></g><rect x="767.7777777777777" y="153.55555555555554" width="76.77777777777777" height="76.77777777777777" fill="#ffffff"/><path d="M 806.17 191.95 A 38.39 38.39 0 0 0 844.56 153.56 L 806.17 153.56" fill="#ffa7bc"/><rect x="1074.8888888888887" y="153.55555555555554" width="76.77777777777777" height="76.77777777777777" fill="#ffffff"/><path d="M 1113.28 191.95 A 38.39 38.39 0 0 0 1151.67 153.56 L 1113.28 153.56" fill="#ff7596"/><path d="M 1074.89 230.32999999999998 A 38.39 38.39 0 0 0 1113.2800000000002 191.94 L 1074.89 191.94" fill="#f1f3fd"/><path d="M 1113.28 230.32999999999998 A 38.39 38.39 0 0 1  1151.67 191.94 L 1151.67 230.32999999999998" fill="#ff9ab2"/><rect x="76.77777777777777" y="230.33333333333331" width="76.77777777777777" height="76.77777777777777" fill="#ffffff"/><rect x="307.1111111111111" y="230.33333333333331" width="76.77777777777777" height="76.77777777777777" fill="#ffffff"/><rect x="307.11" y="230.33" width="38.39" height="38.39" fill="#e6eafc"/><path d="M 345.5 307.11 A 38.39 38.39 0 0 1  383.89 268.72 L 345.5 307.11 A 38.39 38.39 0 0 0 383.89 268.72" fill="#ffc1cf"/><rect x="383.88888888888886" y="230.33333333333331" width="76.77777777777777" height="76.77777777777777" fill="#ffffff"/><path d="M 383.89 268.72 A 38.39 38.39 0 0 1  422.28 307.11 L 383.89 268.72 A 38.39 38.39 0 0 0 422.28 307.11" fill="#ffeaef"/><rect x="460.66666666666663" y="230.33333333333331" width="76.77777777777777" height="76.77777777777777" fill="#ffffff"/><rect x="1228.4444444444443" y="230.33333333333331" width="76.77777777777777" height="76.77777777777777" fill="#ffffff"/><polygon points="1305.22,230.33 1305.22,268.72 1266.83,268.72" fill="#96a8f1"/><rect x="0" y="307.1111111111111" width="76.77777777777777" height="76.77777777777777" fill="#ffffff"/><rect x="0" y="345.5" width="38.39" height="38.39" fill="#94a6f1"/><rect x="460.66666666666663" y="307.1111111111111" width="76.77777777777777" height="76.77777777777777" fill="#ffffff"/><rect x="537.4444444444443" y="307.1111111111111" width="76.77777777777777" height="76.77777777777777" fill="#ffffff"/><path d="M 537.44 345.5 A 38.39 38.39 0 0 1  575.83 383.89 L 537.44 345.5 A 38.39 38.39 0 0 0 575.83 383.89" fill="#4e6ce8"/><rect x="691" y="307.1111111111111" width="76.77777777777777" height="76.77777777777777" fill="#ffffff"/><polygon points="729.39,307.11 767.78,307.11 767.78,345.5" fill="#ffc8d5"/><rect x="1228.4444444444443" y="307.1111111111111" width="76.77777777777777" height="76.77777777777777" fill="#ffffff"/><rect x="1228.44" y="345.5" width="38.39" height="38.39" fill="#ffd6e0"/><rect x="76.77777777777777" y="383.88888888888886" width="76.77777777777777" height="76.77777777777777" fill="#ffffff"/><path d="M 115.17 422.28 A 38.39 38.39 0 0 1  153.56 383.89 L 115.17 422.28 A 38.39 38.39 0 0 0 153.56 383.89" fill="#fff0f3"/><rect x="76.78" y="422.28" width="38.39" height="38.39" fill="#ffd6e0"/><rect x="153.55555555555554" y="460.66666666666663" width="76.77777777777777" height="76.77777777777777" fill="#ffffff"/><rect x="230.33333333333331" y="460.66666666666663" width="76.77777777777777" height="76.77777777777777" fill="#ffffff"/><path d="M 230.33 499.06 A 38.39 38.39 0 0 1  268.72 537.45 L 230.33 499.06 A 38.39 38.39 0 0 0 268.72 537.45" fill="#6680eb"/><rect x="460.66666666666663" y="460.66666666666663" width="76.77777777777777" height="76.77777777777777" fill="#ffffff"/><rect x="499.06" y="460.67" width="38.39" height="38.39" fill="#e7ebfc"/><rect x="767.7777777777777" y="460.66666666666663" width="76.77777777777777" height="76.77777777777777" fill="#ffffff"/><path d="M 767.78 499.06 A 38.39 38.39 0 0 1 806.17 537.45 L 767.78 537.45" fill="#eef1fd"/><rect x="921.3333333333333" y="460.66666666666663" width="76.77777777777777" height="76.77777777777777" fill="#ffffff"/><polygon points="959.72,460.67 959.72,499.06 921.33,499.06" fill="#c8d1f8"/><rect x="998.1111111111111" y="460.66666666666663" width="76.77777777777777" height="76.77777777777777" fill="#ffffff"/><path d="M 998.11 460.67 A 38.39 38.39 0 0 1 1036.5 499.06 L 998.11 499.06" fill="#ff7a99"/><path d="M 1036.5 537.45 A 38.39 38.39 0 0 1  1074.89 499.06 L 1036.5 537.45 A 38.39 38.39 0 0 0 1074.89 499.06" fill="#7189ed"/><rect x="1074.8888888888887" y="460.66666666666663" width="76.77777777777777" height="76.77777777777777" fill="#ffffff"/><rect x="1151.6666666666665" y="460.66666666666663" width="76.77777777777777" height="76.77777777777777" fill="#ffffff"/><path d="M 1190.06 460.67 A 38.39 38.39 0 0 1 1228.45 499.06 L 1190.06 499.06" fill="#ffc5d3"/><path d="M 1151.67 537.45 A 38.39 38.39 0 0 1  1190.0600000000002 499.06 L 1190.0600000000002 537.45" fill="#ff7f9e"/><rect x="76.77777777777777" y="537.4444444444443" width="76.77777777777777" height="76.77777777777777" fill="#ffffff"/><rect x="76.78" y="537.44" width="38.39" height="38.39" fill="#ffeff3"/><rect x="230.33333333333331" y="537.4444444444443" width="76.77777777777777" height="76.77777777777777" fill="#ffffff"/><path d="M 268.72 575.83 A 38.39 38.39 0 0 1  307.11 537.44 L 268.72 575.83 A 38.39 38.39 0 0 0 307.11 537.44" fill="#dfe5fb"/><rect x="307.1111111111111" y="537.4444444444443" width="76.77777777777777" height="76.77777777777777" fill="#ffffff"/><path d="M 307.11 575.83 A 38.39 38.39 0 0 1  345.5 537.44 L 307.11 575.83 A 38.39 38.39 0 0 0 345.5 537.44" fill="#ffe9ee"/><rect x="345.5" y="537.44" width="38.39" height="38.39" fill="#ffe0e7"/><rect x="345.5" y="575.83" width="38.39" height="38.39" fill="#728aed"/><rect x="844.5555555555554" y="537.4444444444443" width="76.77777777777777" height="76.77777777777777" fill="#ffffff"/><rect x="844.56" y="537.44" width="38.39" height="38.39" fill="#ff3f6d"/><g transform="translate(882.94,537.44) scale(1.9195) rotate(0)"><path d="M5 0H10L5 5L0 10V5L5 0Z" fill="#ffb1c3"/><path d="M20 15V20H15L20 15Z" fill="#ffb1c3"/><path d="M20 5V10L15 15L10 20H5L20 5Z" fill="#ffb1c3"/><path d="M15 0H20L5 15.0002L0 20.0002V15.0002L15 0Z" fill="#ffb1c3"/></g><polygon points="882.9499999999999,575.83 882.9499999999999,614.22 844.56,614.22" fill="#eff2fd"/><rect x="921.3333333333333" y="537.4444444444443" width="76.77777777777777" height="76.77777777777777" fill="#ffffff"/><g transform="translate(921.33,537.44) scale(1.9195) rotate(0)"><path d="M5 0H10L5 5L0 10V5L5 0Z" fill="#869aef"/><path d="M20 15V20H15L20 15Z" fill="#869aef"/><path d="M20 5V10L15 15L10 20H5L20 5Z" fill="#869aef"/><path d="M15 0H20L5 15.0002L0 20.0002V15.0002L15 0Z" fill="#869aef"/></g><path d="M 959.72 575.83 A 38.39 38.39 0 0 1  998.11 614.22 L 959.72 575.83 A 38.39 38.39 0 0 0 998.11 614.22" fill="#f7f8fe"/><rect x="1074.8888888888887" y="537.4444444444443" width="76.77777777777777" height="76.77777777777777" fill="#ffffff"/><g transform="translate(1074.89,575.83) scale(1.9195) rotate(0)"><path d="M5 0H10L5 5L0 10V5L5 0Z" fill="#3c5de6"/><path d="M20 15V20H15L20 15Z" fill="#3c5de6"/><path d="M20 5V10L15 15L10 20H5L20 5Z" fill="#3c5de6"/><path d="M15 0H20L5 15.0002L0 20.0002V15.0002L15 0Z" fill="#3c5de6"/></g><rect x="767.7777777777777" y="614.2222222222222" width="76.77777777777777" height="76.77777777777777" fill="#ffffff"/><polygon points="806.17,614.22 806.17,652.61 767.78,652.61" fill="#ffa5ba"/><polygon points="806.17,652.61 806.17,691 767.78,691" fill="#ffadc0"/><rect x="921.3333333333333" y="614.2222222222222" width="76.77777777777777" height="76.77777777777777" fill="#ffffff"/><polygon points="998.11,652.61 998.11,691 959.72,691" fill="#e3e8fb"/><rect x="1074.8888888888887" y="614.2222222222222" width="76.77777777777777" height="76.77777777777777" fill="#ffffff"/><path d="M 1113.28 652.61 A 38.39 38.39 0 0 1  1151.67 614.22 L 1113.28 652.61 A 38.39 38.39 0 0 0 1151.67 614.22" fill="#b1bef5"/><path d="M 1113.28 652.61 A 38.39 38.39 0 0 0 1151.67 691 L 1151.67 652.61" fill="#ffcad7"/></g></svg>